<svg width="442" height="24" viewBox="0 0 442 24" fill="none" xmlns="http://www.w3.org/2000/svg">
<path d="M1.76136 19V4.45455H3.52273V10.9318H11.2784V4.45455H13.0398V19H11.2784V12.4943H3.52273V19H1.76136ZM15.7706 6.01705V4.45455H26.6797V6.01705H22.1058V19H20.3445V6.01705H15.7706ZM29.3981 4.45455H31.5004L36.4435 16.5284H36.614L41.5572 4.45455H43.6594V19H42.0117V7.94886H41.8697L37.3242 19H35.7333L31.1879 7.94886H31.0458V19H29.3981V4.45455ZM47.1911 19V4.45455H48.9524V17.4375H55.7138V19H47.1911ZM63.3558 3.77273L58.6683 21.1875H57.1342L61.8217 3.77273H63.3558ZM77.2745 9H75.5131C75.409 8.49337 75.2267 8.0483 74.9663 7.66477C74.7106 7.28125 74.3981 6.95928 74.0288 6.69886C73.6642 6.43371 73.2594 6.23485 72.8143 6.10227C72.3692 5.9697 71.9052 5.90341 71.4222 5.90341C70.5415 5.90341 69.7437 6.12595 69.0288 6.57102C68.3185 7.0161 67.7527 7.67188 67.3313 8.53835C66.9147 9.40483 66.7063 10.4678 66.7063 11.7273C66.7063 12.9867 66.9147 14.0497 67.3313 14.9162C67.7527 15.7827 68.3185 16.4384 69.0288 16.8835C69.7437 17.3286 70.5415 17.5511 71.4222 17.5511C71.9052 17.5511 72.3692 17.4848 72.8143 17.3523C73.2594 17.2197 73.6642 17.0232 74.0288 16.7628C74.3981 16.4976 74.7106 16.1733 74.9663 15.7898C75.2267 15.4015 75.409 14.9564 75.5131 14.4545H77.2745C77.1419 15.1979 76.9005 15.8632 76.5501 16.4503C76.1997 17.0374 75.7641 17.5369 75.2433 17.9489C74.7224 18.3561 74.1377 18.6662 73.489 18.8793C72.8451 19.0923 72.1561 19.1989 71.4222 19.1989C70.1817 19.1989 69.0785 18.8958 68.1126 18.2898C67.1467 17.6837 66.3867 16.822 65.8327 15.7045C65.2788 14.5871 65.0018 13.2614 65.0018 11.7273C65.0018 10.1932 65.2788 8.86742 65.8327 7.75C66.3867 6.63258 67.1467 5.77083 68.1126 5.16477C69.0785 4.55871 70.1817 4.25568 71.4222 4.25568C72.1561 4.25568 72.8451 4.36222 73.489 4.57528C74.1377 4.78835 74.7224 5.10085 75.2433 5.51278C75.7641 5.91998 76.1997 6.41714 76.5501 7.00426C76.9005 7.58665 77.1419 8.25189 77.2745 9ZM88.0753 8.09091C87.9901 7.37121 87.6444 6.8125 87.0384 6.41477C86.4323 6.01705 85.6889 5.81818 84.8082 5.81818C84.1643 5.81818 83.6009 5.92235 83.1179 6.13068C82.6397 6.33901 82.2656 6.62547 81.9957 6.99006C81.7306 7.35464 81.598 7.76894 81.598 8.23295C81.598 8.62121 81.6903 8.95502 81.875 9.23438C82.0644 9.509 82.3059 9.73864 82.5994 9.9233C82.893 10.1032 83.2008 10.2524 83.5227 10.3707C83.8447 10.4844 84.1406 10.5767 84.4105 10.6477L85.8878 11.0455C86.2666 11.1449 86.688 11.2822 87.152 11.4574C87.6207 11.6326 88.0682 11.8717 88.4943 12.1747C88.9252 12.473 89.2803 12.8565 89.5597 13.3253C89.839 13.794 89.9787 14.3693 89.9787 15.0511C89.9787 15.8371 89.7727 16.5473 89.3608 17.1818C88.9536 17.8163 88.357 18.3205 87.571 18.6946C86.7898 19.0687 85.8404 19.2557 84.723 19.2557C83.6813 19.2557 82.7794 19.0876 82.017 18.7514C81.2595 18.4152 80.6629 17.9465 80.2273 17.3452C79.7964 16.7438 79.5526 16.0455 79.4957 15.25H81.3139C81.3613 15.7992 81.5459 16.2538 81.8679 16.6136C82.1946 16.9687 82.6065 17.2339 83.1037 17.4091C83.6056 17.5795 84.1454 17.6648 84.723 17.6648C85.3954 17.6648 85.9991 17.5559 86.5341 17.3381C87.0691 17.1155 87.4929 16.8078 87.8054 16.4148C88.1179 16.017 88.2741 15.553 88.2741 15.0227C88.2741 14.5398 88.1392 14.1468 87.8693 13.8438C87.5994 13.5407 87.2443 13.2945 86.804 13.1051C86.3636 12.9157 85.8878 12.75 85.3764 12.608L83.5866 12.0966C82.4503 11.7699 81.5507 11.3035 80.8878 10.6974C80.2249 10.0914 79.8935 9.2983 79.8935 8.31818C79.8935 7.50379 80.1136 6.79356 80.554 6.1875C80.9991 5.5767 81.5956 5.10322 82.3438 4.76705C83.0966 4.42614 83.937 4.25568 84.8651 4.25568C85.8026 4.25568 86.6359 4.42377 87.3651 4.75994C88.0942 5.09138 88.6719 5.54593 89.098 6.12358C89.5289 6.70123 89.7562 7.35701 89.7798 8.09091H88.0753ZM100.829 8.09091C100.744 7.37121 100.398 6.8125 99.7923 6.41477C99.1862 6.01705 98.4428 5.81818 97.5621 5.81818C96.9182 5.81818 96.3548 5.92235 95.8718 6.13068C95.3936 6.33901 95.0195 6.62547 94.7496 6.99006C94.4845 7.35464 94.3519 7.76894 94.3519 8.23295C94.3519 8.62121 94.4442 8.95502 94.6289 9.23438C94.8183 9.509 95.0598 9.73864 95.3533 9.9233C95.6469 10.1032 95.9547 10.2524 96.2766 10.3707C96.5986 10.4844 96.8945 10.5767 97.1644 10.6477L98.6417 11.0455C99.0205 11.1449 99.4419 11.2822 99.9059 11.4574C100.375 11.6326 100.822 11.8717 101.248 12.1747C101.679 12.473 102.034 12.8565 102.314 13.3253C102.593 13.794 102.733 14.3693 102.733 15.0511C102.733 15.8371 102.527 16.5473 102.115 17.1818C101.708 17.8163 101.111 18.3205 100.325 18.6946C99.5437 19.0687 98.5943 19.2557 97.4769 19.2557C96.4353 19.2557 95.5333 19.0876 94.771 18.7514C94.0134 18.4152 93.4168 17.9465 92.9812 17.3452C92.5503 16.7438 92.3065 16.0455 92.2496 15.25H94.0678C94.1152 15.7992 94.2998 16.2538 94.6218 16.6136C94.9485 16.9687 95.3604 17.2339 95.8576 17.4091C96.3595 17.5795 96.8993 17.6648 97.4769 17.6648C98.1493 17.6648 98.753 17.5559 99.288 17.3381C99.823 17.1155 100.247 16.8078 100.559 16.4148C100.872 16.017 101.028 15.553 101.028 15.0227C101.028 14.5398 100.893 14.1468 100.623 13.8438C100.353 13.5407 99.9982 13.2945 99.5579 13.1051C99.1175 12.9157 98.6417 12.75 98.1303 12.608L96.3406 12.0966C95.2042 11.7699 94.3046 11.3035 93.6417 10.6974C92.9788 10.0914 92.6474 9.2983 92.6474 8.31818C92.6474 7.50379 92.8675 6.79356 93.3079 6.1875C93.753 5.5767 94.3496 5.10322 95.0977 4.76705C95.8505 4.42614 96.6909 4.25568 97.619 4.25568C98.5565 4.25568 99.3898 4.42377 100.119 4.75994C100.848 5.09138 101.426 5.54593 101.852 6.12358C102.283 6.70123 102.51 7.35701 102.534 8.09091H100.829Z" fill="black"/>
<path d="M205.25 19H200.761V4.45455H205.449C206.86 4.45455 208.067 4.74574 209.071 5.32812C210.075 5.90578 210.844 6.73674 211.379 7.82102C211.914 8.90057 212.182 10.1932 212.182 11.6989C212.182 13.214 211.912 14.5185 211.372 15.6122C210.832 16.7012 210.046 17.5393 209.014 18.1264C207.982 18.7088 206.727 19 205.25 19ZM202.523 17.4375H205.136C206.339 17.4375 207.336 17.2055 208.126 16.7415C208.917 16.2775 209.507 15.617 209.895 14.7599C210.283 13.9029 210.477 12.8826 210.477 11.6989C210.477 10.5246 210.286 9.51373 209.902 8.66619C209.518 7.81392 208.946 7.16051 208.183 6.70597C207.421 6.24669 206.472 6.01705 205.335 6.01705H202.523V17.4375ZM227.409 11.7273C227.409 13.2614 227.132 14.5871 226.578 15.7045C226.024 16.822 225.264 17.6837 224.298 18.2898C223.332 18.8958 222.229 19.1989 220.989 19.1989C219.748 19.1989 218.645 18.8958 217.679 18.2898C216.713 17.6837 215.953 16.822 215.399 15.7045C214.845 14.5871 214.568 13.2614 214.568 11.7273C214.568 10.1932 214.845 8.86742 215.399 7.75C215.953 6.63258 216.713 5.77083 217.679 5.16477C218.645 4.55871 219.748 4.25568 220.989 4.25568C222.229 4.25568 223.332 4.55871 224.298 5.16477C225.264 5.77083 226.024 6.63258 226.578 7.75C227.132 8.86742 227.409 10.1932 227.409 11.7273ZM225.705 11.7273C225.705 10.4678 225.494 9.40483 225.072 8.53835C224.656 7.67188 224.09 7.0161 223.375 6.57102C222.665 6.12595 221.869 5.90341 220.989 5.90341C220.108 5.90341 219.31 6.12595 218.595 6.57102C217.885 7.0161 217.319 7.67188 216.898 8.53835C216.481 9.40483 216.273 10.4678 216.273 11.7273C216.273 12.9867 216.481 14.0497 216.898 14.9162C217.319 15.7827 217.885 16.4384 218.595 16.8835C219.31 17.3286 220.108 17.5511 220.989 17.5511C221.869 17.5511 222.665 17.3286 223.375 16.8835C224.09 16.4384 224.656 15.7827 225.072 14.9162C225.494 14.0497 225.705 12.9867 225.705 11.7273ZM230.371 4.45455H232.473L237.416 16.5284H237.587L242.53 4.45455H244.632V19H242.984V7.94886H242.842L238.297 19H236.706L232.161 7.94886H232.018V19H230.371V4.45455Z" fill="black"/>
<path d="M349.33 4.45455H351.091V14.8523C351.091 15.7803 350.92 16.5687 350.58 17.2173C350.239 17.866 349.758 18.3584 349.138 18.6946C348.518 19.0308 347.786 19.1989 346.943 19.1989C346.148 19.1989 345.44 19.0545 344.82 18.7656C344.199 18.4721 343.712 18.0554 343.357 17.5156C343.001 16.9759 342.824 16.3343 342.824 15.5909H344.557C344.557 16.0028 344.659 16.3627 344.862 16.6705C345.071 16.9735 345.355 17.2102 345.714 17.3807C346.074 17.5511 346.484 17.6364 346.943 17.6364C347.45 17.6364 347.881 17.5298 348.236 17.3168C348.591 17.1037 348.861 16.7912 349.045 16.3793C349.235 15.9626 349.33 15.4536 349.33 14.8523V4.45455ZM357.604 19.2557C356.912 19.2557 356.285 19.1255 355.722 18.8651C355.158 18.5999 354.711 18.2188 354.379 17.7216C354.048 17.2197 353.882 16.6136 353.882 15.9034C353.882 15.2784 354.005 14.7718 354.251 14.3835C354.498 13.9905 354.827 13.6828 355.239 13.4602C355.651 13.2377 356.105 13.072 356.602 12.9631C357.104 12.8494 357.608 12.7595 358.115 12.6932C358.778 12.608 359.315 12.544 359.727 12.5014C360.144 12.4541 360.447 12.3759 360.636 12.267C360.83 12.1581 360.928 11.9687 360.928 11.6989V11.642C360.928 10.9413 360.736 10.3968 360.352 10.0085C359.973 9.62027 359.398 9.42614 358.626 9.42614C357.826 9.42614 357.199 9.60133 356.744 9.9517C356.29 10.3021 355.97 10.6761 355.786 11.0739L354.195 10.5057C354.479 9.8428 354.857 9.3267 355.331 8.95739C355.809 8.58333 356.33 8.32292 356.893 8.17614C357.462 8.02462 358.02 7.94886 358.57 7.94886C358.92 7.94886 359.322 7.99148 359.777 8.0767C360.236 8.1572 360.679 8.32528 361.105 8.58097C361.536 8.83665 361.893 9.22254 362.178 9.73864C362.462 10.2547 362.604 10.946 362.604 11.8125V19H360.928V17.5227H360.842C360.729 17.7595 360.539 18.0128 360.274 18.2827C360.009 18.5526 359.656 18.7822 359.216 18.9716C358.776 19.161 358.238 19.2557 357.604 19.2557ZM357.859 17.75C358.522 17.75 359.081 17.6198 359.536 17.3594C359.995 17.099 360.34 16.7628 360.572 16.3509C360.809 15.9389 360.928 15.5057 360.928 15.0511V13.517C360.857 13.6023 360.7 13.6804 360.459 13.7514C360.222 13.8177 359.947 13.8769 359.635 13.929C359.327 13.9763 359.027 14.0189 358.733 14.0568C358.444 14.09 358.21 14.1184 358.03 14.142C357.594 14.1989 357.187 14.2912 356.808 14.419C356.434 14.5421 356.131 14.7292 355.899 14.9801C355.672 15.2263 355.558 15.5625 355.558 15.9886C355.558 16.571 355.774 17.0114 356.205 17.3097C356.64 17.6032 357.192 17.75 357.859 17.75ZM374.193 8.09091L370.159 19H368.454L364.42 8.09091H366.238L369.25 16.7841H369.363L372.375 8.09091H374.193ZM379.283 19.2557C378.592 19.2557 377.965 19.1255 377.401 18.8651C376.838 18.5999 376.39 18.2188 376.059 17.7216C375.728 17.2197 375.562 16.6136 375.562 15.9034C375.562 15.2784 375.685 14.7718 375.931 14.3835C376.177 13.9905 376.506 13.6828 376.918 13.4602C377.33 13.2377 377.785 13.072 378.282 12.9631C378.784 12.8494 379.288 12.7595 379.795 12.6932C380.458 12.608 380.995 12.544 381.407 12.5014C381.824 12.4541 382.127 12.3759 382.316 12.267C382.51 12.1581 382.607 11.9687 382.607 11.6989V11.642C382.607 10.9413 382.415 10.3968 382.032 10.0085C381.653 9.62027 381.078 9.42614 380.306 9.42614C379.506 9.42614 378.879 9.60133 378.424 9.9517C377.969 10.3021 377.65 10.6761 377.465 11.0739L375.874 10.5057C376.158 9.8428 376.537 9.3267 377.011 8.95739C377.489 8.58333 378.01 8.32292 378.573 8.17614C379.141 8.02462 379.7 7.94886 380.249 7.94886C380.6 7.94886 381.002 7.99148 381.457 8.0767C381.916 8.1572 382.359 8.32528 382.785 8.58097C383.216 8.83665 383.573 9.22254 383.857 9.73864C384.141 10.2547 384.283 10.946 384.283 11.8125V19H382.607V17.5227H382.522C382.408 17.7595 382.219 18.0128 381.954 18.2827C381.689 18.5526 381.336 18.7822 380.896 18.9716C380.455 19.161 379.918 19.2557 379.283 19.2557ZM379.539 17.75C380.202 17.75 380.761 17.6198 381.215 17.3594C381.674 17.099 382.02 16.7628 382.252 16.3509C382.489 15.9389 382.607 15.5057 382.607 15.0511V13.517C382.536 13.6023 382.38 13.6804 382.138 13.7514C381.902 13.8177 381.627 13.8769 381.315 13.929C381.007 13.9763 380.706 14.0189 380.413 14.0568C380.124 14.09 379.889 14.1184 379.71 14.142C379.274 14.1989 378.867 14.2912 378.488 14.419C378.114 14.5421 377.811 14.7292 377.579 14.9801C377.352 15.2263 377.238 15.5625 377.238 15.9886C377.238 16.571 377.453 17.0114 377.884 17.3097C378.32 17.6032 378.871 17.75 379.539 17.75ZM395.525 8.09091C395.439 7.37121 395.094 6.8125 394.488 6.41477C393.882 6.01705 393.138 5.81818 392.257 5.81818C391.614 5.81818 391.05 5.92235 390.567 6.13068C390.089 6.33901 389.715 6.62547 389.445 6.99006C389.18 7.35464 389.047 7.76894 389.047 8.23295C389.047 8.62121 389.14 8.95502 389.324 9.23438C389.514 9.509 389.755 9.73864 390.049 9.9233C390.342 10.1032 390.65 10.2524 390.972 10.3707C391.294 10.4844 391.59 10.5767 391.86 10.6477L393.337 11.0455C393.716 11.1449 394.137 11.2822 394.601 11.4574C395.07 11.6326 395.517 11.8717 395.944 12.1747C396.374 12.473 396.73 12.8565 397.009 13.3253C397.288 13.794 397.428 14.3693 397.428 15.0511C397.428 15.8371 397.222 16.5473 396.81 17.1818C396.403 17.8163 395.806 18.3205 395.02 18.6946C394.239 19.0687 393.29 19.2557 392.172 19.2557C391.131 19.2557 390.229 19.0876 389.466 18.7514C388.709 18.4152 388.112 17.9465 387.676 17.3452C387.246 16.7438 387.002 16.0455 386.945 15.25H388.763C388.81 15.7992 388.995 16.2538 389.317 16.6136C389.644 16.9687 390.056 17.2339 390.553 17.4091C391.055 17.5795 391.595 17.6648 392.172 17.6648C392.845 17.6648 393.448 17.5559 393.983 17.3381C394.518 17.1155 394.942 16.8078 395.255 16.4148C395.567 16.017 395.723 15.553 395.723 15.0227C395.723 14.5398 395.588 14.1468 395.319 13.8438C395.049 13.5407 394.694 13.2945 394.253 13.1051C393.813 12.9157 393.337 12.75 392.826 12.608L391.036 12.0966C389.9 11.7699 389 11.3035 388.337 10.6974C387.674 10.0914 387.343 9.2983 387.343 8.31818C387.343 7.50379 387.563 6.79356 388.003 6.1875C388.448 5.5767 389.045 5.10322 389.793 4.76705C390.546 4.42614 391.386 4.25568 392.314 4.25568C393.252 4.25568 394.085 4.42377 394.814 4.75994C395.543 5.09138 396.121 5.54593 396.547 6.12358C396.978 6.70123 397.205 7.35701 397.229 8.09091H395.525ZM404.528 19.2273C403.506 19.2273 402.625 18.9858 401.886 18.5028C401.148 18.0199 400.58 17.3546 400.182 16.5071C399.784 15.6596 399.585 14.6913 399.585 13.6023C399.585 12.4943 399.789 11.5166 400.196 10.669C400.608 9.81676 401.181 9.15152 401.915 8.6733C402.653 8.19034 403.515 7.94886 404.5 7.94886C405.267 7.94886 405.958 8.09091 406.574 8.375C407.189 8.65909 407.694 9.05682 408.087 9.56818C408.48 10.0795 408.723 10.6761 408.818 11.358H407.142C407.014 10.8608 406.73 10.4205 406.29 10.0369C405.854 9.64867 405.267 9.45455 404.528 9.45455C403.875 9.45455 403.302 9.625 402.81 9.96591C402.322 10.3021 401.941 10.7779 401.666 11.3935C401.396 12.0043 401.261 12.7216 401.261 13.5455C401.261 14.3883 401.394 15.1222 401.659 15.7472C401.929 16.3722 402.308 16.8575 402.795 17.2031C403.288 17.5488 403.866 17.7216 404.528 17.7216C404.964 17.7216 405.359 17.6458 405.714 17.4943C406.07 17.3428 406.37 17.125 406.616 16.8409C406.863 16.5568 407.038 16.2159 407.142 15.8182H408.818C408.723 16.4621 408.489 17.0421 408.115 17.5582C407.746 18.0696 407.256 18.4768 406.645 18.7798C406.039 19.0781 405.333 19.2273 404.528 19.2273ZM411.268 19V8.09091H412.888V9.73864H413.001C413.2 9.19886 413.56 8.76089 414.081 8.42472C414.602 8.08854 415.189 7.92045 415.842 7.92045C415.965 7.92045 416.119 7.92282 416.304 7.92756C416.489 7.93229 416.628 7.93939 416.723 7.94886V9.65341C416.666 9.6392 416.536 9.6179 416.332 9.58949C416.134 9.55634 415.923 9.53977 415.7 9.53977C415.17 9.53977 414.696 9.65104 414.28 9.87358C413.868 10.0914 413.541 10.3944 413.3 10.7827C413.063 11.1662 412.945 11.6042 412.945 12.0966V19H411.268ZM418.71 19V8.09091H420.386V19H418.71ZM419.562 6.27273C419.235 6.27273 418.954 6.16146 418.717 5.93892C418.485 5.71638 418.369 5.44886 418.369 5.13636C418.369 4.82386 418.485 4.55634 418.717 4.33381C418.954 4.11127 419.235 4 419.562 4C419.889 4 420.168 4.11127 420.4 4.33381C420.637 4.55634 420.755 4.82386 420.755 5.13636C420.755 5.44886 420.637 5.71638 420.4 5.93892C420.168 6.16146 419.889 6.27273 419.562 6.27273ZM423.456 23.0909V8.09091H425.075V9.82386H425.274C425.397 9.63447 425.568 9.39299 425.786 9.09943C426.008 8.80114 426.325 8.53598 426.737 8.30398C427.154 8.06723 427.717 7.94886 428.428 7.94886C429.346 7.94886 430.156 8.1785 430.857 8.63778C431.557 9.09706 432.104 9.74811 432.497 10.5909C432.89 11.4337 433.087 12.428 433.087 13.5739C433.087 14.7292 432.89 15.7306 432.497 16.5781C432.104 17.4209 431.56 18.0743 430.864 18.5384C430.168 18.9976 429.365 19.2273 428.456 19.2273C427.755 19.2273 427.194 19.1113 426.773 18.8793C426.351 18.6425 426.027 18.375 425.8 18.0767C425.572 17.7737 425.397 17.5227 425.274 17.3239H425.132V23.0909H423.456ZM425.104 13.5455C425.104 14.3693 425.224 15.0961 425.466 15.7259C425.707 16.3509 426.06 16.8409 426.524 17.196C426.988 17.5464 427.556 17.7216 428.229 17.7216C428.929 17.7216 429.514 17.5369 429.983 17.1676C430.456 16.7936 430.812 16.2917 431.048 15.6619C431.29 15.0275 431.411 14.322 431.411 13.5455C431.411 12.7784 431.292 12.0871 431.055 11.4716C430.823 10.8513 430.471 10.3613 429.997 10.0014C429.528 9.63684 428.939 9.45455 428.229 9.45455C427.547 9.45455 426.974 9.62737 426.51 9.97301C426.046 10.3139 425.696 10.7921 425.459 11.4077C425.222 12.0185 425.104 12.7311 425.104 13.5455ZM440.388 8.09091V9.51136H434.734V8.09091H440.388ZM436.382 5.47727H438.058V15.875C438.058 16.3485 438.127 16.7036 438.264 16.9403C438.406 17.1723 438.586 17.3286 438.804 17.4091C439.027 17.4848 439.261 17.5227 439.507 17.5227C439.692 17.5227 439.843 17.5133 439.962 17.4943C440.08 17.4706 440.175 17.4517 440.246 17.4375L440.587 18.9432C440.473 18.9858 440.314 19.0284 440.111 19.071C439.907 19.1184 439.649 19.142 439.337 19.142C438.863 19.142 438.399 19.0402 437.945 18.8366C437.495 18.633 437.121 18.3229 436.822 17.9062C436.529 17.4896 436.382 16.964 436.382 16.3295V5.47727Z" fill="black"/>
<path d="M119.939 10.9393C119.354 11.5251 119.354 12.4749 119.939 13.0607L129.485 22.6066C130.071 23.1924 131.021 23.1924 131.607 22.6066C132.192 22.0208 132.192 21.0711 131.607 20.4853L123.121 12L131.607 3.51472C132.192 2.92893 132.192 1.97918 131.607 1.3934C131.021 0.807612 130.071 0.807612 129.485 1.3934L119.939 10.9393ZM183.061 13.0607C183.646 12.4749 183.646 11.5251 183.061 10.9393L173.515 1.3934C172.929 0.807612 171.979 0.807612 171.393 1.3934C170.808 1.97918 170.808 2.92893 171.393 3.51472L179.879 12L171.393 20.4853C170.808 21.0711 170.808 22.0208 171.393 22.6066C171.979 23.1924 172.929 23.1924 173.515 22.6066L183.061 13.0607ZM121 13.5H182V10.5H121V13.5Z" fill="black"/>
<path d="M262.939 10.9393C262.354 11.5251 262.354 12.4749 262.939 13.0607L272.485 22.6066C273.071 23.1924 274.021 23.1924 274.607 22.6066C275.192 22.0208 275.192 21.0711 274.607 20.4853L266.121 12L274.607 3.51472C275.192 2.92893 275.192 1.97918 274.607 1.3934C274.021 0.807612 273.071 0.807612 272.485 1.3934L262.939 10.9393ZM326.061 13.0607C326.646 12.4749 326.646 11.5251 326.061 10.9393L316.515 1.3934C315.929 0.807612 314.979 0.807612 314.393 1.3934C313.808 1.97918 313.808 2.92893 314.393 3.51472L322.879 12L314.393 20.4853C313.808 21.0711 313.808 22.0208 314.393 22.6066C314.979 23.1924 315.929 23.1924 316.515 22.6066L326.061 13.0607ZM264 13.5H325V10.5H264V13.5Z" fill="black"/>
</svg>
